<svg width="322" height="292" viewBox="0 0 322 292" fill="none" xmlns="http://www.w3.org/2000/svg">
<path d="M233.917 277.25V248.083C230.049 248.083 226.34 246.547 223.605 243.812C220.87 241.077 219.333 237.368 219.333 233.5V218.917C219.333 211.181 222.406 203.763 227.876 198.293C233.346 192.823 240.765 189.75 248.5 189.75H277.667C285.402 189.75 292.821 192.823 298.291 198.293C303.76 203.763 306.833 211.181 306.833 218.917V233.5C306.833 237.368 305.297 241.077 302.562 243.812C299.827 246.547 296.118 248.083 292.25 248.083" stroke="#EA5045" stroke-width="29.1667" stroke-linecap="round" stroke-linejoin="round"/>
<path d="M263.083 189.75V65.7917C263.083 52.2546 257.706 39.2719 248.134 29.6998C238.561 20.1276 225.579 14.75 212.042 14.75C198.505 14.75 185.522 20.1276 175.95 29.6998C166.378 39.2719 161 52.2546 161 65.7917V226.208C161 239.745 155.622 252.728 146.05 262.3C136.478 271.872 123.495 277.25 109.958 277.25C96.4212 277.25 83.4386 271.872 73.8664 262.3C64.2943 252.728 58.9167 239.745 58.9167 226.208V102.25M292.25 277.25V248.083H233.917M29.75 43.9167H88.0833V14.75" stroke="#EA5045" stroke-width="29.1667" stroke-linecap="round" stroke-linejoin="round"/>
<path d="M88.0834 43.9167C91.9511 43.9167 95.6604 45.4531 98.3953 48.188C101.13 50.9229 102.667 54.6323 102.667 58.5V73.0833C102.667 80.8188 99.5938 88.2375 94.124 93.7073C88.6542 99.1771 81.2355 102.25 73.5 102.25H44.3334C36.5979 102.25 29.1792 99.1771 23.7094 93.7073C18.2396 88.2375 15.1667 80.8188 15.1667 73.0833V58.5C15.1667 54.6323 16.7031 50.9229 19.438 48.188C22.173 45.4531 25.8823 43.9167 29.75 43.9167V14.75" stroke="#EA5045" stroke-width="29.1667" stroke-linecap="round" stroke-linejoin="round"/>
</svg>
