<svg width="350" height="350" viewBox="0 0 350 350" fill="none" xmlns="http://www.w3.org/2000/svg">
<g clip-path="url(#clip0_190_507)">
<path d="M311.111 77.7777H240.139L229.833 51.3333C228.423 47.679 225.942 44.5357 222.716 42.3152C219.489 40.0947 215.667 38.9004 211.75 38.8888H138.25C134.316 38.8808 130.473 40.0659 127.227 42.2877C123.981 44.5095 121.485 47.6635 120.069 51.3333L109.861 77.7777H38.8888C33.7318 77.7777 28.786 79.8263 25.1395 83.4729C21.4929 87.1194 19.4443 92.0652 19.4443 97.2222V291.667C19.4443 296.824 21.4929 301.769 25.1395 305.416C28.786 309.062 33.7318 311.111 38.8888 311.111H311.111C316.268 311.111 321.214 309.062 324.86 305.416C328.507 301.769 330.555 296.824 330.555 291.667V97.2222C330.555 92.0652 328.507 87.1194 324.86 83.4729C321.214 79.8263 316.268 77.7777 311.111 77.7777ZM311.111 291.667H38.8888V97.2222H123.18L138.25 58.3333H211.75L226.819 97.2222H311.111V291.667Z" fill="#EA5045"/>
<path d="M87.5 184.722C87.5 202.028 92.6318 218.945 102.246 233.335C111.861 247.724 125.527 258.939 141.515 265.562C157.504 272.184 175.097 273.917 192.07 270.541C209.044 267.165 224.635 258.831 236.872 246.594C249.109 234.357 257.443 218.766 260.819 201.793C264.195 184.819 262.462 167.226 255.839 151.237C249.217 135.249 238.002 121.583 223.612 111.969C209.223 102.354 192.306 97.2222 175 97.2222C151.794 97.2222 129.538 106.441 113.128 122.85C96.7187 139.26 87.5 161.516 87.5 184.722ZM246.944 184.722C246.944 198.951 242.725 212.861 234.82 224.692C226.914 236.524 215.678 245.745 202.532 251.19C189.386 256.635 174.92 258.06 160.964 255.284C147.008 252.508 134.189 245.656 124.128 235.595C114.066 225.533 107.214 212.714 104.438 198.758C101.662 184.802 103.087 170.336 108.532 157.19C113.977 144.044 123.199 132.808 135.03 124.903C146.861 116.997 160.771 112.778 175 112.778C194.073 112.803 212.357 120.392 225.844 133.878C239.331 147.365 246.919 165.649 246.944 184.722Z" fill="#EA5045"/>
<path d="M91.0974 124.736C91.0974 122.673 90.2779 120.695 88.8193 119.236C87.3607 117.778 85.3824 116.958 83.3196 116.958H59.9863C57.9235 116.958 55.9452 117.778 54.4866 119.236C53.0279 120.695 52.2085 122.673 52.2085 124.736C52.2085 126.799 53.0279 128.777 54.4866 130.236C55.9452 131.694 57.9235 132.514 59.9863 132.514H83.3196C85.3824 132.514 87.3607 131.694 88.8193 130.236C90.2779 128.777 91.0974 126.799 91.0974 124.736Z" fill="#EA5045"/>
<path d="M119.972 184.722C120.081 194.976 123.1 204.988 128.676 213.593C134.253 222.199 142.158 229.044 151.472 233.333L159.736 220.014C154.169 218.149 149.096 215.049 144.898 210.944C140.7 206.84 137.486 201.839 135.497 196.315C133.508 190.791 132.795 184.889 133.412 179.05C134.029 173.212 135.96 167.589 139.06 162.603C142.16 157.618 146.349 153.398 151.312 150.262C156.275 147.126 161.884 145.154 167.718 144.495C173.552 143.836 179.459 144.506 184.997 146.455C190.535 148.404 195.56 151.582 199.694 155.75L208.055 142.333C200.096 135.885 190.468 131.83 180.294 130.643C170.119 129.455 159.816 131.183 150.586 135.625C141.355 140.067 133.577 147.04 128.157 155.733C122.737 164.425 119.898 174.479 119.972 184.722Z" fill="#EA5045"/>
</g>
<defs>
<clipPath id="clip0_190_507">
<rect width="350" height="350" fill="white"/>
</clipPath>
</defs>
</svg>
