<svg width="300" height="300" viewBox="0 0 300 300" fill="none" xmlns="http://www.w3.org/2000/svg">
<path fill-rule="evenodd" clip-rule="evenodd" d="M150 278.566C78.991 278.566 21.4285 221.009 21.4285 149.995C21.4285 78.9805 78.991 21.4233 150 21.4233C221.003 21.4233 278.571 78.9858 278.571 149.995C278.571 221.004 221.003 278.566 150 278.566ZM150 40.3716C89.5499 40.3716 40.3713 89.5501 40.3713 149.995C40.3713 182.475 54.6428 211.607 77.1481 231.691C77.8445 231.209 78.7017 230.78 79.7088 230.448C80.6017 230.188 81.4767 229.927 82.3338 229.666C107.395 221.979 113.384 215.325 115.645 207.98C119.802 206.122 121.35 204.852 122.175 200.438C122.689 197.63 123.096 188.223 122.7 184.955C120.327 182.641 119.036 176.673 117.884 174.295C115.227 168.777 114.755 165.927 112.2 156.648C111.809 155.405 110.968 155.325 110.373 155.089C109.478 154.714 108.707 154.125 107.882 153C105.557 149.85 107.009 148.072 104.828 142.088C102.053 135.284 100.934 128.561 103.045 126.552C104.475 125.277 105.428 126.097 106.13 126.359C106.591 126.53 106.237 125.373 105.825 123.697C104.148 116.839 104.057 103.173 104.057 103.173L104.309 103.163C103.452 97.4466 103.65 92.1805 107.443 84.1983C111.177 76.0394 114.514 77.8394 116.389 75.7448C124.307 66.8305 131.587 66.6001 137.052 64.243C149.336 58.9394 159.691 63.643 167.973 67.1091C171.455 68.6091 181.618 69.7716 185.009 77.2662C186.991 81.6323 188.721 89.0894 189.391 89.759C190.098 92.9733 190.484 98.1644 190.12 103.848C189.67 110.877 189.659 116.689 187.993 123.541C187.57 125.207 187.205 126.38 187.671 126.193C188.373 125.936 189.246 124.988 190.671 126.263C192.777 128.272 192.348 135.279 189.573 142.088C187.398 148.072 188.593 149.17 187.205 151.623C186.616 152.695 186.203 154.141 184.403 154.789C183.809 155.009 183.08 155.539 182.802 156.825C180.873 165.841 180.38 167.486 178.355 174.252C177.595 176.78 175.864 182.229 173.577 184.377C173.095 188.25 174.225 198.198 174.878 200.438C176.389 205.688 177.836 206.705 180.782 207.98C184.414 215.561 187.211 225.45 215.025 229.875C216.286 230.075 217.602 230.266 218.973 230.448C220.553 230.679 221.823 231.102 222.953 231.6C245.395 211.505 259.628 182.422 259.628 149.995C259.628 89.5501 210.45 40.3716 150 40.3716Z" fill="#233249"/>
</svg>
