<svg width="100" height="100" viewBox="0 0 100 100" fill="none" xmlns="http://www.w3.org/2000/svg">
<path d="M32.5002 8.33325H67.5002C80.8335 8.33325 91.6668 19.1666 91.6668 32.4999V67.4999C91.6668 73.9093 89.1207 80.0562 84.5886 84.5883C80.0564 89.1205 73.9096 91.6666 67.5002 91.6666H32.5002C19.1668 91.6666 8.3335 80.8333 8.3335 67.4999V32.4999C8.3335 26.0905 10.8796 19.9436 15.4117 15.4115C19.9439 10.8794 26.0908 8.33325 32.5002 8.33325ZM31.6668 16.6666C27.6886 16.6666 23.8733 18.2469 21.0602 21.06C18.2472 23.873 16.6668 27.6883 16.6668 31.6666V68.3332C16.6668 76.6249 23.3752 83.3332 31.6668 83.3332H68.3335C72.3117 83.3332 76.1271 81.7529 78.9401 78.9399C81.7531 76.1268 83.3335 72.3115 83.3335 68.3332V31.6666C83.3335 23.3749 76.6252 16.6666 68.3335 16.6666H31.6668ZM71.8752 22.9166C73.2565 22.9166 74.5813 23.4653 75.558 24.4421C76.5348 25.4188 77.0835 26.7436 77.0835 28.1249C77.0835 29.5063 76.5348 30.831 75.558 31.8078C74.5813 32.7845 73.2565 33.3333 71.8752 33.3333C70.4938 33.3333 69.1691 32.7845 68.1923 31.8078C67.2156 30.831 66.6668 29.5063 66.6668 28.1249C66.6668 26.7436 67.2156 25.4188 68.1923 24.4421C69.1691 23.4653 70.4938 22.9166 71.8752 22.9166ZM50.0002 29.1666C55.5255 29.1666 60.8245 31.3615 64.7316 35.2685C68.6386 39.1755 70.8335 44.4746 70.8335 49.9999C70.8335 55.5253 68.6386 60.8243 64.7316 64.7313C60.8245 68.6383 55.5255 70.8332 50.0002 70.8332C44.4748 70.8332 39.1758 68.6383 35.2688 64.7313C31.3618 60.8243 29.1668 55.5253 29.1668 49.9999C29.1668 44.4746 31.3618 39.1755 35.2688 35.2685C39.1758 31.3615 44.4748 29.1666 50.0002 29.1666ZM50.0002 37.4999C46.685 37.4999 43.5055 38.8169 41.1613 41.1611C38.8171 43.5053 37.5002 46.6847 37.5002 49.9999C37.5002 53.3151 38.8171 56.4945 41.1613 58.8388C43.5055 61.183 46.685 62.4999 50.0002 62.4999C53.3154 62.4999 56.4948 61.183 58.839 58.8388C61.1832 56.4945 62.5002 53.3151 62.5002 49.9999C62.5002 46.6847 61.1832 43.5053 58.839 41.1611C56.4948 38.8169 53.3154 37.4999 50.0002 37.4999Z" fill="white"/>
</svg>
