<svg width="88" height="82" viewBox="0 0 88 82" fill="none" xmlns="http://www.w3.org/2000/svg">
<path d="M31.4999 25.4999H48.7937V34.3624H49.0437C51.4499 30.0437 57.3374 25.4999 66.1187 25.4999C84.3749 25.4999 87.7499 36.8624 87.7499 51.6437V81.7499H69.7187V55.0624C69.7187 48.6999 69.5874 40.5062 60.3437 40.5062C50.9562 40.5062 49.5187 47.4374 49.5187 54.5999V81.7499H31.4999V25.4999ZM0.249903 25.4999H18.9999V81.7499H0.249903V25.4999ZM18.9999 9.8749C18.9991 12.3621 18.0102 14.7472 16.2509 16.5053C14.4916 18.2635 12.1059 19.2507 9.61865 19.2499C7.13142 19.2491 4.74639 18.2602 2.98823 16.5009C1.23008 14.7416 0.242824 12.3559 0.243653 9.86865C0.244482 7.38142 1.23333 4.99639 2.99265 3.23823C3.86378 2.36768 4.89785 1.67724 6.03581 1.20632C7.17378 0.735408 8.39335 0.493242 9.6249 0.493653C10.8565 0.494063 12.0759 0.737042 13.2135 1.20872C14.3512 1.68039 15.3848 2.37152 16.2553 3.24265C17.1259 4.11378 17.8163 5.14785 18.2872 6.28581C18.7581 7.42378 19.0003 8.64335 18.9999 9.8749Z" fill="white"/>
</svg>
