<svg width="118" height="143" viewBox="0 0 118 143" fill="none" xmlns="http://www.w3.org/2000/svg">
<path d="M68.4316 138.996L68.4316 137.344L70.6156 137.344L70.6156 129L72.6316 129L72.6316 137.344L74.8156 137.344L74.8156 138.996L68.4316 138.996Z" fill="#233249"/>
<path d="M55.4961 137.046L55.8184 135.425L59.3198 136.122L59.7786 133.815L56.4832 133.16L56.8055 131.539L60.1009 132.195L60.6253 129.559L56.9866 128.835L57.3089 127.215L62.9249 128.332L60.9747 138.136L55.4961 137.046Z" fill="#233249"/>
<path d="M46.0488 130.198C45.7702 130.87 45.6504 131.392 45.6892 131.761C45.7158 132.136 45.9404 132.411 46.3629 132.586C46.5957 132.682 46.8165 132.698 47.0253 132.633C47.2219 132.573 47.4223 132.418 47.6263 132.17C47.8269 131.929 48.039 131.588 48.2628 131.145C48.483 130.711 48.7289 130.166 49.0003 129.511C49.2896 128.813 49.502 128.239 49.6375 127.79C49.7643 127.337 49.8303 126.971 49.8355 126.69C49.8285 126.414 49.7695 126.203 49.6586 126.056C49.5356 125.914 49.3749 125.802 49.1765 125.72C49.0127 125.652 48.8511 125.615 48.6917 125.61C48.5201 125.61 48.3486 125.67 48.1773 125.791C48.0024 125.921 47.8223 126.124 47.6369 126.401C47.448 126.686 47.2499 127.079 47.0427 127.579L45.1802 126.807C45.3874 126.307 45.6226 125.849 45.8859 125.433C46.1493 125.017 46.4584 124.685 46.8132 124.438C47.1595 124.187 47.5659 124.048 48.0325 124.019C48.4905 123.986 49.0256 124.097 49.6378 124.35C50.3363 124.64 50.846 124.982 51.1671 125.378C51.4881 125.773 51.6732 126.229 51.7224 126.744C51.7629 127.256 51.6963 127.819 51.5224 128.434C51.3399 129.046 51.1022 129.705 50.8093 130.412C50.52 131.11 50.2237 131.74 49.9205 132.302C49.605 132.868 49.252 133.318 48.8614 133.651C48.4622 133.981 48.0075 134.176 47.4971 134.238C46.9832 134.308 46.377 134.198 45.6786 133.909C45.0146 133.634 44.5376 133.31 44.2475 132.937C43.9487 132.561 43.7742 132.165 43.7238 131.75C43.6698 131.344 43.7016 130.938 43.8192 130.532C43.9246 130.131 44.047 129.763 44.1863 129.426L46.0488 130.198Z" fill="#233249"/>
<path d="M36.6749 129.176L34.9986 128.056L37.122 124.878L35.1664 123.571L33.043 126.749L31.3668 125.629L36.9202 117.318L38.5965 118.438L36.1309 122.128L38.0865 123.434L40.5521 119.744L42.2283 120.864L36.6749 129.176Z" fill="#233249"/>
<path d="M19.3843 102.576C19.1488 102.61 18.8926 102.68 18.6157 102.786C18.3389 102.893 18.1112 103.006 17.9327 103.125L16.9682 101.682C17.4183 101.381 17.9074 101.172 18.4353 101.055C18.9503 100.935 19.4693 100.88 19.9922 100.89L20.7976 98.7692L21.9876 100.55L21.6585 101.444C22.0469 101.487 22.4263 101.643 22.7967 101.912C23.162 102.173 23.4846 102.513 23.7646 102.932C24.112 103.452 24.3235 103.928 24.399 104.361C24.4668 104.798 24.4426 105.19 24.3265 105.537C24.2104 105.884 24.036 106.186 23.8032 106.443C23.5705 106.699 23.3378 106.905 23.105 107.061C22.6161 107.387 22.0791 107.533 21.494 107.497C20.896 107.459 20.2603 107.289 19.587 106.987L19.3507 107.566C19.2578 107.796 19.1713 107.994 19.0912 108.16C19.0059 108.318 18.9181 108.455 18.8276 108.572C18.7371 108.688 18.6427 108.791 18.5445 108.879C18.4462 108.967 18.3388 109.05 18.2224 109.128C17.9508 109.309 17.6766 109.419 17.3996 109.459C17.1097 109.495 16.8288 109.469 16.5569 109.382C16.2773 109.299 16.0131 109.156 15.7644 108.952C15.5027 108.745 15.2682 108.486 15.0608 108.176C14.8222 107.819 14.664 107.481 14.586 107.163C14.4951 106.842 14.474 106.542 14.5229 106.262C14.564 105.988 14.6635 105.742 14.8211 105.524C14.9736 105.299 15.1702 105.106 15.4107 104.945C15.8298 104.665 16.2865 104.534 16.781 104.551C17.2702 104.561 17.8528 104.694 18.5287 104.949L19.3843 102.576ZM20.0553 105.546C20.5214 105.706 20.9046 105.775 21.2049 105.754C21.4999 105.725 21.7755 105.625 22.0316 105.454C22.1558 105.371 22.2683 105.262 22.3691 105.128C22.4647 104.985 22.5357 104.831 22.5822 104.665C22.6156 104.497 22.618 104.316 22.5894 104.122C22.5529 103.933 22.4725 103.745 22.348 103.559C22.0525 103.117 21.6367 102.873 21.1008 102.827L20.0553 105.546ZM17.2581 107.785C17.4909 107.63 17.7002 107.288 17.886 106.759L18.0332 106.375L17.5749 106.243C17.2952 106.161 17.0557 106.13 16.8564 106.151C16.6442 106.169 16.4643 106.228 16.3169 106.326C16.0918 106.477 15.9678 106.66 15.9447 106.878C15.9087 107.093 15.9633 107.309 16.1085 107.526C16.2433 107.728 16.4156 107.86 16.6253 107.922C16.8299 107.976 17.0408 107.93 17.2581 107.785Z" fill="#233249"/>
<path d="M12.1816 83.5756L12.4699 83.5183C12.6988 83.4728 12.9057 83.4126 13.0906 83.3377C13.2664 83.2647 13.4084 83.1651 13.5165 83.0389C13.6246 82.9127 13.6989 82.7599 13.7394 82.5806C13.778 82.3921 13.7718 82.1697 13.7209 81.9134C13.6608 81.6113 13.5109 81.3604 13.2714 81.1606C13.0208 80.9535 12.6896 80.8909 12.2776 80.9729C12.0579 81.0166 11.8767 81.0859 11.7338 81.181C11.5799 81.2687 11.4526 81.3939 11.3517 81.5567C11.2509 81.7195 11.1729 81.9254 11.1177 82.1742C11.0516 82.4158 10.9964 82.7123 10.9521 83.0637C10.893 83.5322 10.8084 83.9439 10.6982 84.2989C10.588 84.6539 10.4403 84.964 10.2551 85.2292C10.059 85.4871 9.81994 85.6964 9.53788 85.8572C9.24668 86.0198 8.89969 86.1412 8.49691 86.2213C7.52659 86.4143 6.74971 86.2881 6.16627 85.8427C5.58283 85.3973 5.19734 84.7032 5.00979 83.7603C4.92239 83.3209 4.89262 82.9081 4.92048 82.522C4.93737 82.1284 5.02925 81.7771 5.19614 81.4679C5.35206 81.1514 5.5848 80.8863 5.89437 80.6724C6.19296 80.4513 6.57568 80.2942 7.04253 80.2014L7.31715 80.1467L7.69407 82.0416C7.22721 82.1345 6.88659 82.2879 6.67221 82.5018C6.44867 82.7176 6.37514 83.0177 6.45162 83.4022C6.49532 83.6219 6.56378 83.7986 6.65699 83.9323C6.7502 84.066 6.86083 84.1677 6.98889 84.2374C7.10597 84.2997 7.23681 84.3356 7.3814 84.3449C7.52417 84.345 7.66879 84.3305 7.81526 84.3014C8.11734 84.2413 8.3609 84.1263 8.54595 83.9562C8.72185 83.788 8.85488 83.4761 8.94505 83.0204L9.30096 81.3651C9.39108 80.957 9.50401 80.6158 9.63975 80.3414C9.76633 80.0688 9.92124 79.8429 10.1045 79.6637C10.2767 79.4772 10.481 79.3319 10.7172 79.2278C10.9534 79.1237 11.2226 79.0416 11.5247 78.9815C12.5591 78.7758 13.3744 78.9276 13.9705 79.4371C14.5558 79.9392 14.9549 80.7258 15.1679 81.7968C15.3901 82.9136 15.3068 83.7629 14.9181 84.3445C14.5277 84.917 13.8793 85.2934 12.9731 85.4737L12.5749 85.5529L12.1816 83.5756Z" fill="#233249"/>
<path d="M4.004 67.4366L5.656 67.4366L5.656 69.6206L14 69.6206L14 71.6366L5.656 71.6366L5.656 73.8206L4.004 73.8206L4.004 67.4366Z" fill="#233249"/>
<path d="M9.98934 59.8344C10.6484 59.9655 11.2141 60.0637 11.6864 60.1291C12.1514 60.1835 12.5395 60.1941 12.8506 60.1608C13.1544 60.1166 13.3923 60.0212 13.5642 59.8746C13.7288 59.717 13.8402 59.4917 13.8985 59.1988C13.9567 58.9058 13.9391 58.6597 13.8455 58.4603C13.7446 58.2499 13.5614 58.0707 13.2958 57.9227C13.0229 57.7637 12.6604 57.625 12.2081 57.5065C11.7485 57.377 11.1892 57.2467 10.5301 57.1156C9.87104 56.9845 9.30901 56.8918 8.84402 56.8373C8.38086 56.7738 7.9928 56.7632 7.67985 56.8056C7.36871 56.8389 7.13085 56.9343 6.96628 57.0919C6.79438 57.2385 6.67929 57.4583 6.62102 57.7512C6.56276 58.0441 6.58407 58.2958 6.68496 58.5062C6.77852 58.7056 6.96175 58.8848 7.23465 59.0438C7.50937 59.1936 7.87194 59.3323 8.32235 59.46C8.77459 59.5785 9.33025 59.7033 9.98934 59.8344ZM9.59604 61.8116C8.85457 61.6641 8.17897 61.4964 7.56924 61.3086C6.95218 61.1097 6.44214 60.8512 6.03912 60.5331C5.63791 60.2059 5.35743 59.798 5.19767 59.3095C5.02876 58.8191 5.01805 58.2032 5.16554 57.4617C5.31302 56.7202 5.55863 56.1553 5.90234 55.7669C6.2369 55.3766 6.65121 55.1117 7.14528 54.9721C7.64116 54.8233 8.21129 54.7797 8.85566 54.8413C9.4927 54.8918 10.182 54.9909 10.9234 55.1384C11.6741 55.2877 12.3533 55.4608 12.9612 55.6579C13.571 55.8458 14.0764 56.1034 14.4776 56.4306C14.8807 56.7486 15.1575 57.1511 15.3081 57.6378C15.4587 58.1245 15.4602 58.7386 15.3127 59.4801C15.1653 60.2216 14.9288 60.7883 14.6034 61.1804C14.278 61.5724 13.8674 61.8428 13.3715 61.9916C12.8774 62.1313 12.3118 62.1758 11.6748 62.1252C11.0396 62.0655 10.3467 61.9609 9.59604 61.8116Z" fill="#233249"/>
<path d="M8.30486 47.0945L9.72997 43.654C10.0514 42.8779 10.4998 42.3565 11.075 42.0897C11.6416 41.8192 12.3259 41.8501 13.1278 42.1823C13.7487 42.4394 14.2056 42.7752 14.4987 43.1896C14.7832 43.6004 14.8725 44.092 14.7667 44.6644L14.7926 44.6751C15.0544 44.2381 15.3464 43.96 15.6685 43.8408C15.9906 43.7217 16.4211 43.7434 16.9599 43.906C17.1395 43.9602 17.3346 44.0258 17.5451 44.1029C17.747 44.1764 17.9747 44.2607 18.2284 44.3556C18.727 44.542 19.1128 44.6715 19.3858 44.7441C19.6659 44.7995 19.8891 44.7607 20.0554 44.6275L20.133 44.6596L19.2972 46.6774C19.1286 46.7187 18.957 46.7183 18.7825 46.6763C18.5993 46.6307 18.4154 46.5748 18.2307 46.5084L16.4373 45.8261C16.068 45.6934 15.7459 45.666 15.4711 45.7442C15.1963 45.8223 14.9785 46.0553 14.8178 46.4434L14.4053 47.4393L18.3114 49.0573L17.54 50.9198L8.30486 47.0945ZM13.1119 46.9036L13.4333 46.1275C13.619 45.6791 13.6584 45.2913 13.5515 44.9642C13.4359 44.6334 13.1281 44.3645 12.628 44.1573C11.7743 43.8037 11.1689 44.0581 10.8117 44.9204L10.4474 45.7999L13.1119 46.9036Z" fill="#233249"/>
<path d="M14.903 34.0653L18.847 35.1178L18.8625 35.0945L16.4275 31.7837L17.6409 29.9678L21.2423 35.4892L24.5133 37.6748L23.3933 39.351L20.1223 37.1654L13.643 35.9511L14.903 34.0653Z" fill="#233249"/>
<path d="M38.1509 23.8651L32.5974 15.5537L34.2736 14.4337L38.9093 21.3715L41.8777 19.3881L42.7955 20.7617L38.1509 23.8651Z" fill="#233249"/>
<path d="M49.7975 13.3457L47.1852 9.56343L47.1594 9.57415L47.9867 14.0957L49.7975 13.3457ZM47.6591 7.48811L53.929 15.7106L51.9888 16.5143L50.753 14.738L48.2955 15.7559L48.6777 17.8858L46.7375 18.6894L45.3568 8.44176L47.6591 7.48811Z" fill="#233249"/>
<path d="M59.803 12.7813L60.5719 12.6283C61.0479 12.5337 61.4114 12.3519 61.6625 12.0831C61.9135 11.8143 61.9826 11.3961 61.8697 10.8286C61.8133 10.5448 61.7256 10.3196 61.6068 10.1529C61.4954 9.9752 61.36 9.8451 61.2009 9.76256C61.0491 9.66905 60.8771 9.61762 60.6849 9.60827C60.4927 9.59891 60.2867 9.61609 60.0671 9.65979L59.2157 9.82912L59.803 12.7813ZM58.9426 8.45602L59.5056 8.34404C60.0548 8.23479 60.4339 8.05947 60.6428 7.81807C60.8591 7.5657 60.9208 7.20609 60.8279 6.73923C60.735 6.27238 60.5551 5.9656 60.288 5.81888C60.0209 5.67217 59.6402 5.64798 59.1459 5.7463L58.4319 5.88833L58.9426 8.45602ZM56.1651 4.82615L59.4742 4.16791C59.877 4.08779 60.256 4.05524 60.611 4.07026C60.9753 4.08345 61.3001 4.16158 61.5855 4.30466C61.8709 4.44773 62.1141 4.6658 62.3151 4.95888C62.5162 5.25195 62.6631 5.63192 62.756 6.09877C62.8616 6.62971 62.8291 7.11199 62.6584 7.54562C62.4859 7.97009 62.1661 8.30015 61.6991 8.53579L61.7046 8.56325C62.2684 8.52723 62.7496 8.67417 63.1483 9.00406C63.547 9.33395 63.8119 9.82844 63.943 10.4875C64.0195 10.872 64.042 11.2482 64.0105 11.6161C63.979 11.9839 63.866 12.3252 63.6717 12.6398C63.4847 12.9435 63.2098 13.2123 62.8472 13.4462C62.4936 13.6783 62.0285 13.8517 61.4518 13.9664L58.1152 14.6301L56.1651 4.82615Z" fill="#233249"/>
<mask id="mask0_200_23" style="mask-type:alpha" maskUnits="userSpaceOnUse" x="21" y="22" width="97" height="97">
<path d="M102.696 35.7921C102.696 35.7921 99.3223 62.6567 85.8274 84.7241C94.0208 83.2849 104.624 80.4065 117.637 75.1296C117.637 75.1296 121.011 53.0622 102.696 35.7921ZM73.7784 49.2244C68.4768 42.988 60.7654 34.8327 49.6803 26.6773C36.1854 32.9137 26.0642 44.4272 22.6904 58.8189C45.3426 49.7041 64.6211 48.7447 73.7784 49.2244ZM90.1651 63.1364C93.0568 55.4608 95.9486 44.4272 97.8765 30.9948C78.116 16.6031 56.4278 23.799 56.4278 23.799C56.4278 23.799 77.6341 40.1096 90.1651 63.1364ZM65.1031 91.92C70.4046 98.1564 78.116 106.312 89.2011 114.467C89.2011 114.467 109.926 106.791 116.191 82.3254C116.191 81.8457 90.647 92.3997 65.1031 91.92ZM48.7164 77.0485C45.8246 84.7241 42.9328 95.278 41.4869 109.19C41.4869 109.19 58.8376 123.102 82.9356 116.386C82.9356 116.386 60.7654 100.075 48.7164 77.0485ZM21.2445 66.0148C21.2445 66.0148 17.8708 87.6024 36.1854 105.352C36.1854 105.352 39.5591 78.0079 53.054 55.9406C44.8607 57.3797 33.7755 60.2581 21.2445 66.0148Z" fill="black"/>
</mask>
<g mask="url(#mask0_200_23)">
<rect x="2.41998" y="3.42004" width="128.069" height="136.032" fill="#EA5045"/>
</g>
<mask id="mask1_200_23" style="mask-type:alpha" maskUnits="userSpaceOnUse" x="21" y="22" width="97" height="97">
<path d="M102.696 35.7921C102.696 35.7921 99.3223 62.6567 85.8274 84.7241C94.0208 83.2849 104.624 80.4065 117.637 75.1296C117.637 75.1296 121.011 53.0622 102.696 35.7921ZM73.7784 49.2244C68.4768 42.988 60.7654 34.8327 49.6803 26.6773C36.1854 32.9137 26.0642 44.4272 22.6904 58.8189C45.3426 49.7041 64.6211 48.7447 73.7784 49.2244ZM90.1651 63.1364C93.0568 55.4608 95.9486 44.4272 97.8765 30.9948C78.116 16.6031 56.4278 23.799 56.4278 23.799C56.4278 23.799 77.6341 40.1096 90.1651 63.1364ZM65.1031 91.92C70.4046 98.1564 78.116 106.312 89.2011 114.467C89.2011 114.467 109.926 106.791 116.191 82.3254C116.191 81.8457 90.647 92.3997 65.1031 91.92ZM48.7164 77.0485C45.8246 84.7241 42.9328 95.278 41.4869 109.19C41.4869 109.19 58.8376 123.102 82.9356 116.386C82.9356 116.386 60.7654 100.075 48.7164 77.0485ZM21.2445 66.0148C21.2445 66.0148 17.8708 87.6024 36.1854 105.352C36.1854 105.352 39.5591 78.0079 53.054 55.9406C44.8607 57.3797 33.7755 60.2581 21.2445 66.0148Z" fill="#233249"/>
</mask>
<g mask="url(#mask1_200_23)">
<path d="M21 23.9907L54.8421 25.9814L73.0904 43.5661L79.7261 54.1832L61.8096 57.8329L48.5382 71.1043L41.9025 92.0068L38.5846 107.933L21 110.255V23.9907Z" fill="#233249"/>
</g>
<mask id="mask2_200_23" style="mask-type:alpha" maskUnits="userSpaceOnUse" x="21" y="22" width="97" height="97">
<path d="M102.696 35.7921C102.696 35.7921 99.3223 62.6567 85.8274 84.7241C94.0208 83.2849 104.624 80.4065 117.637 75.1296C117.637 75.1296 121.011 53.0622 102.696 35.7921ZM73.7784 49.2244C68.4768 42.988 60.7654 34.8327 49.6803 26.6773C36.1854 32.9137 26.0642 44.4272 22.6904 58.8189C45.3426 49.7041 64.6211 48.7447 73.7784 49.2244ZM90.1651 63.1364C93.0568 55.4608 95.9486 44.4272 97.8765 30.9948C78.116 16.6031 56.4278 23.799 56.4278 23.799C56.4278 23.799 77.6341 40.1096 90.1651 63.1364ZM65.1031 91.92C70.4046 98.1564 78.116 106.312 89.2011 114.467C89.2011 114.467 109.926 106.791 116.191 82.3254C116.191 81.8457 90.647 92.3997 65.1031 91.92ZM48.7164 77.0485C45.8246 84.7241 42.9328 95.278 41.4869 109.19C41.4869 109.19 58.8376 123.102 82.9356 116.386C82.9356 116.386 60.7654 100.075 48.7164 77.0485ZM21.2445 66.0148C21.2445 66.0148 17.8708 87.6024 36.1854 105.352C36.1854 105.352 39.5591 78.0079 53.054 55.9406C44.8607 57.3797 33.7755 60.2581 21.2445 66.0148Z" fill="black"/>
</mask>
<g mask="url(#mask2_200_23)">
<path d="M48.2064 73.095L73.7539 87.6936L118.877 79.0672L116.886 95.9882L90.675 120.209L55.8375 123.858L36.2621 110.587L48.2064 73.095Z" fill="#DA87A8"/>
</g>
</svg>
