<svg width="257" height="299" viewBox="0 0 257 299" fill="none" xmlns="http://www.w3.org/2000/svg">
<path fill-rule="evenodd" clip-rule="evenodd" d="M123.295 99.6475C132.951 107.266 145.239 110.737 157.454 109.296C169.669 107.855 180.812 101.621 188.43 91.965C196.049 82.3088 199.52 70.0216 198.079 57.8064C196.638 45.5912 190.404 34.4487 180.748 26.83C171.075 19.4292 158.88 16.1304 146.795 17.6462C134.711 19.162 123.708 25.3707 116.163 34.9311C108.618 44.4916 105.137 56.6364 106.471 68.7421C107.806 80.8477 113.849 91.9601 123.295 99.6475ZM112.445 113.367C125.745 123.861 142.668 128.642 159.493 126.658C167.824 125.676 175.879 123.063 183.2 118.967C190.521 114.871 196.963 109.374 202.159 102.789C207.355 96.2034 211.203 88.6592 213.484 80.5867C215.764 72.5142 216.432 64.0716 215.45 55.7409C214.468 47.4102 211.854 39.3546 207.758 32.034C203.663 24.7133 198.165 18.2711 191.58 13.075C178.252 2.9473 161.481 -1.54376 144.876 0.568114C128.27 2.67999 113.157 11.226 102.788 24.3674C92.4198 37.5088 87.6242 54.1953 89.4335 70.8366C91.2427 87.4778 99.5122 102.744 112.463 113.35" fill="#EA5045"/>
<path fill-rule="evenodd" clip-rule="evenodd" d="M96.9751 80.4675C98.8776 81.7952 100.175 83.8242 100.582 86.1082C100.989 88.3922 100.472 90.7444 99.1451 92.6475L24.9976 198.75C24.3391 199.692 23.5016 200.496 22.5327 201.114C21.5638 201.733 20.4826 202.154 19.3508 202.355C17.065 202.76 14.7117 202.241 12.8088 200.911C10.9059 199.582 9.60913 197.55 9.20381 195.264C8.7985 192.979 9.31783 190.625 10.6476 188.722L84.7951 82.6375C85.4539 81.6944 86.2923 80.8905 87.2622 80.2717C88.2321 79.653 89.3145 79.2316 90.4474 79.0317C91.5804 78.8318 92.7416 78.8572 93.8647 79.1066C94.9878 79.356 96.0507 79.8244 96.9926 80.485M161.795 112.755C160.066 111.207 157.793 110.41 155.476 110.538C153.159 110.666 150.988 111.709 149.44 113.437L145.415 117.935L140.603 123.272C140.173 123.602 139.774 123.971 139.413 124.375C125.026 140.431 110.559 156.414 96.0126 172.325C83.4301 186.15 70.8126 199.975 52.5251 220.397L65.5626 232.07C81.883 213.866 98.2982 195.748 114.808 177.715C128.598 162.595 142.423 147.44 158.418 129.625L162.478 125.11C164.025 123.381 164.823 121.108 164.695 118.791C164.567 116.474 163.524 114.303 161.795 112.755Z" fill="#EA5045"/>
<path fill-rule="evenodd" clip-rule="evenodd" d="M10.9449 188.303C11.6565 187.398 12.5396 186.643 13.5434 186.081C14.5472 185.518 15.6521 185.159 16.7949 185.024C17.9376 184.889 19.0957 184.981 20.203 185.295C21.3102 185.608 22.3447 186.136 23.2474 186.85L64.4599 219.365C66.2816 220.804 67.4571 222.907 67.7279 225.213C67.9986 227.518 67.3424 229.837 65.9036 231.659C64.4648 233.48 62.3613 234.656 60.0558 234.927C57.7502 235.197 55.4316 234.541 53.6099 233.103L12.3974 200.588C10.5763 199.151 9.40031 197.049 9.12794 194.746C8.85557 192.442 9.5091 190.124 10.9449 188.303ZM123.505 53.01L109.12 31.135L123.75 21.51L138.117 43.385C147.47 57.6371 161.195 68.4695 177.23 74.255L201.852 83.1275L195.902 99.5775L171.297 90.705C151.708 83.6408 134.939 70.4142 123.505 53.01Z" fill="#EA5045"/>
<path fill-rule="evenodd" clip-rule="evenodd" d="M248.875 193.937L248.613 193.99L247.86 194.112C243.372 194.917 238.892 195.762 234.42 196.65C225.67 198.347 213.98 200.71 202.08 203.422C197.215 204.542 193.33 205.382 190.093 206.1C183.53 207.535 179.593 208.392 175.638 209.635C170.038 211.367 164.578 213.835 151.488 220.257C144.383 223.757 137.453 229.532 130.295 236.882C124.991 242.456 119.856 248.187 114.895 254.067C112.888 256.401 110.841 258.757 108.753 261.137C101.438 269.485 93.5976 277.937 84.9876 284.587C76.3251 291.29 66.4376 296.505 54.9926 297.817C47.5376 298.692 39.7326 298.692 32.7151 297.73C25.9951 296.802 18.8376 294.825 13.6926 290.765C4.54009 283.537 -1.58491 271.322 1.51259 254.557C2.37009 249.955 5.15259 244.565 7.86509 239.927C10.7876 234.957 14.3926 229.602 17.8401 224.772C21.8118 219.185 25.9257 213.7 30.1776 208.322L31.0526 207.272L31.2626 206.975L31.3501 206.87C32.8226 205.112 34.9263 204.003 37.2085 203.78C39.4907 203.558 41.7691 204.24 43.5534 205.68C45.3376 207.121 46.4852 209.204 46.7493 211.482C47.0133 213.759 46.3726 216.05 44.9651 217.86L44.9126 217.93L44.7026 218.192L43.8976 219.19C39.8267 224.333 35.8879 229.579 32.0851 234.922C28.8649 239.415 25.8234 244.033 22.9676 248.765C20.2201 253.437 18.9426 256.465 18.7151 257.742C16.8076 268.067 20.4476 273.807 24.5426 277.027C26.0301 278.2 29.4776 279.617 35.1126 280.387C41.0499 281.133 47.056 281.151 52.9976 280.44C60.2426 279.6 67.1726 276.24 74.2951 270.745C81.4701 265.197 88.3826 257.847 95.5926 249.605L101.298 243.025C106.618 236.847 112.148 230.425 117.748 224.667C125.483 216.757 134.023 209.337 143.77 204.542C156.72 198.19 163.37 195.11 170.44 192.922C175.148 191.452 180.118 190.367 187.275 188.792C190.402 188.116 194.042 187.305 198.195 186.36C212.657 183.083 227.185 180.107 241.77 177.435L244.745 176.91L245.55 176.752L245.813 176.7C248.098 176.294 250.452 176.812 252.355 178.142C254.259 179.471 255.556 181.502 255.963 183.787C256.369 186.073 255.85 188.427 254.521 190.33C253.192 192.234 251.161 193.531 248.875 193.937Z" fill="#EA5045"/>
</svg>
