<svg width="234" height="292" viewBox="0 0 234 292" fill="none" xmlns="http://www.w3.org/2000/svg">
<path d="M87.8334 131.417C91.9653 131.417 95.4313 130.017 98.2313 127.217C101.031 124.417 102.426 120.956 102.417 116.833V87.6667C102.417 83.5348 101.017 80.0737 98.2167 77.2834C95.4167 74.4931 91.9556 73.0931 87.8334 73.0834C83.7112 73.0737 80.25 74.4737 77.45 77.2834C74.65 80.0931 73.25 83.5542 73.25 87.6667V116.833C73.25 120.965 74.65 124.431 77.45 127.231C80.25 130.031 83.7112 131.426 87.8334 131.417ZM131.583 131.417C135.715 131.417 139.181 130.017 141.981 127.217C144.781 124.417 146.176 120.956 146.167 116.833V87.6667C146.167 83.5348 144.767 80.0737 141.967 77.2834C139.167 74.4931 135.706 73.0931 131.583 73.0834C127.461 73.0737 124 74.4737 121.2 77.2834C118.4 80.0931 117 83.5542 117 87.6667V116.833C117 120.965 118.4 124.431 121.2 127.231C124 130.031 127.461 131.426 131.583 131.417ZM175.333 131.417C179.465 131.417 182.931 130.017 185.731 127.217C188.531 124.417 189.926 120.956 189.917 116.833V87.6667C189.917 83.5348 188.517 80.0737 185.717 77.2834C182.917 74.4931 179.456 73.0931 175.333 73.0834C171.211 73.0737 167.75 74.4737 164.95 77.2834C162.15 80.0931 160.75 83.5542 160.75 87.6667V116.833C160.75 120.965 162.15 124.431 164.95 127.231C167.75 130.031 171.211 131.426 175.333 131.417ZM29.5 291.833C21.4792 291.833 14.6153 288.98 8.90837 283.273C3.20143 277.566 0.343096 270.697 0.333374 262.667V99.698C0.333374 95.8091 1.06254 92.1049 2.52088 88.5855C3.97921 85.066 6.04518 81.9647 8.71879 79.2813L79.448 8.55217C82.1216 5.87855 85.223 3.81258 88.7521 2.35425C92.2813 0.895916 95.9855 0.166748 99.8646 0.166748H204.5C212.521 0.166748 219.39 3.02508 225.106 8.74175C230.823 14.4584 233.676 21.3223 233.667 29.3334V262.667C233.667 270.688 230.813 277.556 225.106 283.273C219.399 288.99 212.531 291.843 204.5 291.833H29.5ZM29.5 262.667H204.5V29.3334H100.229L29.5 100.063V262.667Z" fill="#EA5045"/>
</svg>
