<svg width="100" height="100" viewBox="0 0 100 100" fill="none" xmlns="http://www.w3.org/2000/svg">
<path d="M93.5832 25.0001C90.3748 26.4584 86.9165 27.4167 83.3332 27.8751C86.9998 25.6667 89.8332 22.1667 91.1665 17.9584C87.7082 20.0417 83.8748 21.5001 79.8332 22.3334C76.5415 18.7501 71.9165 16.6667 66.6665 16.6667C56.8748 16.6667 48.8748 24.6667 48.8748 34.5417C48.8748 35.9584 49.0415 37.3334 49.3332 38.6251C34.4998 37.8751 21.2915 30.7501 12.4998 19.9584C10.9582 22.5834 10.0832 25.6667 10.0832 28.9167C10.0832 35.1251 13.2082 40.6251 18.0415 43.7501C15.0832 43.7501 12.3332 42.9167 9.9165 41.6667V41.7917C9.9165 50.4584 16.0832 57.7084 24.2498 59.3334C21.6283 60.054 18.875 60.1538 16.2082 59.6251C17.3399 63.1771 19.5562 66.2851 22.5457 68.5123C25.5352 70.7395 29.1475 71.9738 32.8748 72.0417C26.5568 77.0439 18.7249 79.7476 10.6665 79.7084C9.24984 79.7084 7.83317 79.6251 6.4165 79.4584C14.3332 84.5417 23.7498 87.5001 33.8332 87.5001C66.6665 87.5001 84.7082 60.2501 84.7082 36.6251C84.7082 35.8334 84.7082 35.0834 84.6665 34.2917C88.1665 31.7917 91.1665 28.6251 93.5832 25.0001Z" fill="white"/>
</svg>
