<svg width="100" height="100" viewBox="0 0 100 100" fill="none" xmlns="http://www.w3.org/2000/svg">
<path d="M41.25 0H35.625L31.875 14.375L28.125 0H21.875C23.125 3.75 24.375 6.875 25.625 10.625C27.5 15.625 28.75 20 28.75 22.5V37.5H34.375V22.5L41.25 0ZM56.25 28.125V18.75C56.25 15.625 55.625 13.75 54.375 11.875C53.125 10 51.25 9.375 48.75 9.375C46.25 9.375 44.375 10.625 43.125 12.5C41.875 13.75 41.25 15.625 41.25 18.75V28.75C41.25 31.875 41.875 33.75 43.125 35C44.375 36.875 46.25 37.5 48.75 37.5C51.25 37.5 53.125 36.25 54.375 34.375C55.625 33.75 56.25 31.25 56.25 28.125ZM51.25 29.375C51.25 31.875 50.625 33.125 48.75 33.125C46.875 33.125 46.25 31.875 46.25 29.375V17.5C46.25 15 46.875 13.75 48.75 13.75C50.625 13.75 51.25 15 51.25 17.5V29.375ZM75 37.5V9.375H70V30.625C68.75 32.5 68.125 33.125 66.875 33.125C66.25 33.125 65.625 32.5 65.625 31.875V9.375H60.625V31.25C60.625 33.125 60.625 34.375 61.25 35.625C61.25 36.875 62.5 37.5 64.375 37.5C66.25 37.5 68.125 36.25 70 34.375V37.5H75ZM77.5 65.625C75.625 65.625 75 66.875 75 69.375V71.875H80V69.375C80 66.875 79.375 65.625 77.5 65.625ZM59.375 65.625C58.75 65.625 57.5 66.25 56.875 66.875V83.75C57.5 84.375 58.75 85 59.375 85C60.625 85 61.25 83.75 61.25 81.25V69.375C61.25 66.875 60.625 65.625 59.375 65.625Z" fill="white"/>
<path d="M90 51.875C88.75 47.5 85 43.75 81.25 43.75C71.25 42.5 60.625 42.5 50 42.5C39.375 42.5 29.375 42.5 18.75 43.75C15 43.75 11.25 47.5 10 51.875C8.75 58.125 8.75 65 8.75 71.25C8.75 77.5 8.75 84.375 10 90.625C11.25 95 14.375 98.125 18.75 98.75C29.375 100 39.375 100 50 100C60.625 100 70.625 100 81.25 98.75C85.625 98.125 89.375 95 90 90.625C91.25 84.375 91.25 77.5 91.25 71.25C91.25 65 91.25 58.125 90 51.875ZM32.5 57.5H26.25V89.375H20.625V57.5H15V51.875H32.5V57.5ZM47.5 89.375H42.5V86.25C40.625 88.75 38.75 89.375 36.875 89.375C35 89.375 34.375 88.75 33.75 87.5C33.75 86.875 33.125 85.625 33.125 83.125V61.25H38.125V83.125C38.125 83.75 38.75 84.375 39.375 84.375C40.625 84.375 41.25 83.75 42.5 81.875V61.25H47.5V89.375ZM66.25 80.625C66.25 83.125 66.25 85 65.625 86.25C65 88.125 63.75 89.375 61.875 89.375C60 89.375 58.125 88.125 56.875 86.25V88.75H51.875V51.875H56.875V63.75C58.75 61.875 60 60.625 61.875 60.625C63.75 60.625 65 61.875 65.625 63.75C66.25 65 66.25 66.875 66.25 69.375V80.625ZM85 76.25H75V81.25C75 83.75 75.625 85 77.5 85C78.75 85 79.375 84.375 80 83.125V80H85V83.75C85 85 84.375 85.625 83.75 86.875C82.5 88.75 80.625 90 77.5 90C75 90 73.125 88.75 71.25 86.875C70 85.625 69.375 83.125 69.375 80.625V71.25C69.375 68.125 70 66.25 70.625 65C71.875 63.125 73.75 61.875 76.875 61.875C79.375 61.875 81.25 63.125 82.5 65C83.75 66.25 83.75 68.75 83.75 71.25V76.25H85Z" fill="white"/>
</svg>
